<svg xmlns="http://www.w3.org/2000/svg" fill="none" stroke="currentColor" stroke-width="2" viewBox="0 0 24 24" width="192" height="192">
  <defs>
    <marker id="circle"
      refX="1" refY="1"
      markerWidth="2"
      markerHeight="2" fill="none">
      <circle cx="1" cy="1" r=".5" stroke="currentColor" stroke-width=".5"/>
    </marker>
  </defs>
  <g transform="translate(0, 1)">
    <rect x="0.25" y="1" width="23.5" height="20" rx="1" fill="black" stroke="rgb(24 24 150)" stroke-width=".5"/>
    <path d="M0 3.75v-2a1 1 0 0 1 1 -1h22a1 1 0 0 1 1 1v2z" fill="gray" stroke="none"/>
    <circle cx="1.5" cy="2.25" r="1" fill="red" stroke="none" />
    <circle cx="4" cy="2.25" r="1" fill="yellow" stroke="none" />
    <circle cx="6.5" cy="2.25" r="1" fill="lightgreen" stroke="none" />
    
    <g transform="translate(1, 5.75)" stroke-width="1">
      <path d="M0   0h2                      M1 1.5h1 M2   3h2 M3   4.5h3           M3   6h2         M3 7.5h2.5              M2 9h2M2 10.5h2.5        M1 12h1M0 13.5h2" stroke="rgb(64 64 128)"/>
      <path d="M2.5 0h3M9.5  0h2.5M15.5 0h3           M4.5 3h1 M6.5 4.5h2M10.5 4.5h2M5.5 6h2M11.5 6h2M6 7.5h2.5                    M5 10.5h2.5m4.5 0h2" stroke="rgb(64 128 255)"/>
      <path d="M6   0h3M12.5 0h2.5M19   0h2.5         M6   3h3 M9   4.5h1M13   4.5h2M8   6h3         M9 7.5h2m0.5 0h3m0.5 0h2      M8 10.5h3.5m3   0h2" stroke="rgb(255 128 64)"/>
      <path d="" stroke="rgb(255 128 64)"/>
    </g>
  </g>
  <g transform="translate(10,7)"
    stroke-width="1" stroke-linecap="round" stroke-linejoin="round" 
  >
    <rect x="0" y="0" width="10" height="10" rx="1" fill="black" stroke="rgb(24 24 150)" stroke-width=".5"/>
    <path d="M9 3a2 2 0 0 0-2-2 2 4 0 0 0 0 8 2 3 0 0 0 2-4h-2"
       fill="none" stroke="green" stroke-width="1" />
    <path d="M3 1l2 8 2-8"
       fill="none" stroke="cyan" stroke-width="1" />
    <path
      d="M5 3a2 2 0 0 0-2-2a2 2 0 0 0-2 2a2 2 0 0 0 2 2a2 2 0 0 1 2 2a2 2 0 0 1-2 2a2 2 0 0 1 -2-2" stroke="red"
      />
  </g>
  <g transform="translate(12,19) scale(0.6)">
    <path d="m0 0a7 7 0 0 1 12 0a7 7 0 0 1 -12 0z"
       fill="white" stroke="none"/>
    <path d="m0 0a7 7 0 0 1 12 0a7 7 0 0 1 -12 0zm1 0a6 6 0 0 1 10 0a6 6 0 0 1-10 0zm5 -2a2 2 0 1 0 2 2a2 2 0 0 0-2-2zm0 0.5a1.5 1.5 0 0 1 1.5 1.5a0.5 0.5 0 0 1-1 0a0.5 0.5 0 0 0-0.5-0.5a0.5 0.5 0 0 1 0-1z"
       fill="gray" fill-rule="evenodd" stroke="none" />
  </g>
</svg>