<svg xmlns="http://www.w3.org/2000/svg" fill="none" stroke="currentColor" stroke-width="2" viewBox="0 0 24 24" width="192" height="192">
  <defs>
    <marker id="circle"
      refX="1" refY="1"
      markerWidth="2"
      markerHeight="2" fill="none">
      <circle cx="1" cy="1" r=".5" stroke="currentColor" stroke-width=".5"/>
    </marker>
  </defs>
  <rect x="4" y="0.5" width="16" height="23" rx="2" fill="white" stroke="black" stroke-width="1"/>
  <path d="M5 3h14m0 3h-14m0 3h14m0 3h-14m0 3h14m0 3h-14m0 3h14" stroke="black" stroke-width="1" stroke-dasharray="2 .5 3 1"/>
  <rect x="8" y="2" width="15" height="10" rx="2" fill="white" stroke="black" stroke-width="1"/>
  <g stroke-width="1" stroke-linecap="round" stroke-linejoin="round" stroke="currentColor"
     marker-start="url(#circle)"
     marker-end="url(#circle)"
     marker-mid="url(#circle)"
  >
    <path d="M12 4h-2v3h2v3h-2" color="red"/>
     <path d="M14 4l1 6 1-6" color="blue"/>
     <path d="M20 4h-2l-1 3 1 3h2l1-3h-2" color="green"/>
  </g>
  <g>
    <path d="m12 14a7 7 0 0 1 12 0a7 7 0 0 1 -12 0z"
       fill="white" stroke="none"/>
    <path d="m12 14a7 7 0 0 1 12 0a7 7 0 0 1 -12 0zm1 0a6 6 0 0 1 10 0a6 6 0 0 1-10 0zm5 -2a2 2 0 1 0 2 2a2 2 0 0 0-2-2zm0 0.5a1.5 1.5 0 0 1 1.5 1.5a0.5 0.5 0 0 1-1 0a0.5 0.5 0 0 0-0.5-0.5a0.5 0.5 0 0 1 0-1z"
       fill="gray" fill-rule="evenodd" stroke="none" />
  </g>
</svg>